<svg width="51" height="47" viewBox="0 0 51 47" fill="none" xmlns="http://www.w3.org/2000/svg">
<path d="M47.3224 18.8457H42.6162V26.651C42.6162 30.5603 39.4359 33.7406 35.5266 33.7406H24.1016V36.6401C24.1016 38.3922 25.5271 39.8178 27.2792 39.8178H37.3916L42.213 45.6623C42.5018 46.0121 42.9282 46.2078 43.3704 46.2078C43.4802 46.2078 43.5912 46.1956 43.7015 46.1708C44.2535 46.046 44.6883 45.6207 44.8257 45.0714L46.1395 39.8178H47.3224C49.0745 39.8178 50.5 38.3926 50.5 36.6401V22.0233C50.5 20.2709 49.0745 18.8457 47.3224 18.8457Z" fill="#FFF5E0"/>
<path d="M35.5266 0H4.58936C2.33449 0 0.5 1.83449 0.5 4.08936V26.651C0.5 28.9059 2.33449 30.74 4.58936 30.74H7.59572L9.77773 39.4665C9.91467 40.0162 10.3495 40.4411 10.9019 40.5663C11.0122 40.591 11.1228 40.6033 11.233 40.6033C11.6752 40.6029 12.1016 40.4072 12.39 40.0574L20.077 30.74H35.5266C37.7814 30.74 39.6159 28.9059 39.6159 26.651V4.08936C39.6159 1.83449 37.7814 0 35.5266 0V0ZM28.8684 14.3326L25.5515 17.5659L26.3347 22.131C26.4312 22.694 26.1996 23.2628 25.7377 23.5985C25.4763 23.7885 25.167 23.885 24.8557 23.885C24.6169 23.885 24.3773 23.8281 24.1576 23.7125L20.058 21.5572L15.9579 23.7125C15.4525 23.9784 14.8402 23.9342 14.3779 23.5985C13.9159 23.2628 13.6847 22.694 13.7812 22.131L14.5644 17.5655L11.2471 14.3326C10.8386 13.9339 10.6913 13.3377 10.8676 12.7949C11.0442 12.2517 11.5138 11.8557 12.0788 11.7737L16.6625 11.1076L18.7125 6.95381C18.9654 6.44188 19.4869 6.11763 20.058 6.11763C20.629 6.11763 21.1505 6.44188 21.403 6.95381L23.453 11.1076L28.0368 11.7737C28.6021 11.8557 29.0717 12.2517 29.2479 12.7949C29.4246 13.3381 29.2773 13.9339 28.8684 14.3326Z" fill="#FFF5E0"/>
<path d="M21.1115 13.143L20.0579 11.0083L19.0043 13.143C18.7857 13.5859 18.3634 13.8926 17.8748 13.9639L15.5184 14.3061L17.2232 15.9682C17.5768 16.3126 17.7382 16.8093 17.6547 17.2961L17.2522 19.6425L19.3598 18.5347C19.7966 18.3051 20.3188 18.3051 20.756 18.5347L22.8633 19.6425L22.4608 17.2961C22.3773 16.8093 22.5386 16.3126 22.8922 15.9682L24.597 14.3061L22.2411 13.9639C21.7524 13.8926 21.3301 13.5859 21.1115 13.143Z" fill="#FFF5E0"/>
</svg>
