<?xml version="1.0" encoding="UTF-8" standalone="no"?>
<svg
   width="22"
   height="22"
   viewBox="0 0 22 22"
   fill="none"
   version="1.1"
   id="svg3"
   sodipodi:docname="icn.svg"
   inkscape:version="1.3.2 (1:1.3.2+202404261509+091e20ef0f)"
   xmlns:inkscape="http://www.inkscape.org/namespaces/inkscape"
   xmlns:sodipodi="http://sodipodi.sourceforge.net/DTD/sodipodi-0.dtd"
   xmlns="http://www.w3.org/2000/svg"
   xmlns:svg="http://www.w3.org/2000/svg">
  <defs
     id="defs3" />
  <sodipodi:namedview
     id="namedview3"
     pagecolor="#505050"
     bordercolor="#eeeeee"
     borderopacity="1"
     inkscape:showpageshadow="0"
     inkscape:pageopacity="0"
     inkscape:pagecheckerboard="0"
     inkscape:deskcolor="#505050"
     inkscape:zoom="25.649077"
     inkscape:cx="14.152556"
     inkscape:cy="10.25378"
     inkscape:window-width="1920"
     inkscape:window-height="1011"
     inkscape:window-x="0"
     inkscape:window-y="37"
     inkscape:window-maximized="1"
     inkscape:current-layer="svg3" />
  <g
     id="g3">
    <path
       d="m 10.838173,18.870247 h -6.92083 c -0.04863,0 -0.09526,-0.0193 -0.12964,-0.0537 -0.03438,-0.0344 -0.0537,-0.081 -0.0537,-0.1296 v -1.3292 c 0,-0.7617 0.54359,-1.4327 1.38142,-2.0029 1.496,-1.0212 3.91692,-1.6647 6.63944,-1.6647 0.4491,0 0.8901,0.0184 1.3209,0.0523 0.0911,0.0092 0.1831,0 0.2706,-0.0268 0.0875,-0.0269 0.1687,-0.0709 0.239,-0.1296 0.0702,-0.0587 0.1281,-0.1308 0.1701,-0.2121 0.042,-0.0813 0.0674,-0.1702 0.0746,-0.2615 0.0072,-0.0912 -0.0039,-0.183 -0.0327,-0.2699 -0.0287,-0.0869 -0.0745,-0.1672 -0.1347,-0.2362 -0.0602,-0.0689 -0.1335,-0.1252 -0.2157,-0.1654 -0.0822,-0.0403 -0.1717,-0.0637 -0.263,-0.0689 -0.4754,-0.0382 -0.9522,-0.0571 -1.4291,-0.0569 -3.04519,0 -5.74111,0.7618 -7.41494,1.903 -1.27692,0.8709 -1.98092,1.9773 -1.98092,3.1387 v 1.3301 c 2.5e-4,0.4131 0.16453,0.8092 0.45675,1.1013 0.29222,0.292 0.68845,0.4561 1.10159,0.4561 l 6.92083,9e-4 c 0.18234,0 0.3572,-0.0724 0.48609,-0.2014 0.129,-0.1289 0.2014,-0.3037 0.2014,-0.4861 0,-0.1823 -0.0724,-0.3572 -0.2014,-0.4861 -0.12889,-0.129 -0.30375,-0.2014 -0.48609,-0.2014 z m 0.91669,-17.4285693 c -2.78302,0 -5.04169,2.25867 -5.04169,5.04167 0,2.783 2.25867,5.0416993 5.04169,5.0416993 2.783,0 5.0416,-2.2586993 5.0416,-5.0416993 0,-2.783 -2.2586,-5.04167 -5.0416,-5.04167 z m 0,1.375 c 2.024,0 3.6666,1.64267 3.6666,3.66667 0,2.024 -1.6426,3.6666593 -3.6666,3.6666593 -2.0240201,0 -3.66669,-1.6426593 -3.66669,-3.6666593 0,-2.024 1.6426699,-3.66667 3.66669,-3.66667 z"
       fill="#1c1c1e"
       id="path1" />
    <path
       d="m 10.394053,18.878416 h 8.92083 c 0.04863,0 0.09526,-0.0193 0.12964,-0.0537 0.03438,-0.0344 0.0537,-0.081 0.0537,-0.1296 v -1.3292 c 0,-0.7617 -0.54359,-1.4327 -1.38142,-2.0029 -1.496,-1.0212 -3.91692,-1.6647 -6.63944,-1.6647 -0.4491,0 -0.8901,0.0184 -1.3209,0.0523 -0.0911,0.0092 -0.1831,0 -0.2706,-0.0268 -0.0875,-0.0269 -0.1687,-0.0709 -0.239,-0.1296 -0.0702,-0.0587 -0.1281,-0.1308 -0.1701,-0.2121 -0.042,-0.0813 -0.0674,-0.1702 -0.0746,-0.2615 -0.0072,-0.0912 0.0039,-0.183 0.0327,-0.2699 0.0287,-0.0869 0.0745,-0.1672 0.1347,-0.2362 0.0602,-0.0689 0.1335,-0.1252 0.2157,-0.1654 0.0822,-0.0403 0.1717,-0.0637 0.263,-0.0689 0.4754,-0.0382 0.9522,-0.0571 1.4291,-0.0569 3.04519,0 5.74111,0.7618 7.41494,1.903 1.27692,0.8709 1.98092,1.9773 1.98092,3.1387 v 1.3301 c -2.5e-4,0.4131 -0.16453,0.8092 -0.45675,1.1013 -0.29222,0.292 -0.68845,0.4561 -1.10159,0.4561 l -8.92083,9e-4 c -0.18234,0 -0.3572,-0.0724 -0.48609,-0.2014 -0.129,-0.1289 -0.2014,-0.3037 -0.2014,-0.4861 0,-0.1823 0.0724,-0.3572 0.2014,-0.4861 0.12889,-0.129 0.30375,-0.2014 0.48609,-0.2014 z"
       fill="#1c1c1e"
       id="path1-3"
       sodipodi:nodetypes="ssssscscccscccccccscccccscs" />
  </g>
</svg>
