<?xml version="1.0" encoding="UTF-8" standalone="no"?>
<!-- Created with Inkscape (http://www.inkscape.org/) -->

<svg
   width="64.293739mm"
   height="26.003mm"
   viewBox="0 0 64.293739 26.003"
   version="1.1"
   id="svg1"
   xml:space="preserve"
   sodipodi:docname="logo_header.svg"
   inkscape:version="1.3.2 (1:1.3.2+202404261509+091e20ef0f)"
   xmlns:inkscape="http://www.inkscape.org/namespaces/inkscape"
   xmlns:sodipodi="http://sodipodi.sourceforge.net/DTD/sodipodi-0.dtd"
   xmlns="http://www.w3.org/2000/svg"
   xmlns:svg="http://www.w3.org/2000/svg"><sodipodi:namedview
     id="namedview1"
     pagecolor="#ffffff"
     bordercolor="#666666"
     borderopacity="1.0"
     inkscape:showpageshadow="2"
     inkscape:pageopacity="0.0"
     inkscape:pagecheckerboard="0"
     inkscape:deskcolor="#d1d1d1"
     inkscape:document-units="mm"
     showguides="true"
     inkscape:zoom="4.5473259"
     inkscape:cx="143.27102"
     inkscape:cy="28.368321"
     inkscape:window-width="1920"
     inkscape:window-height="1011"
     inkscape:window-x="0"
     inkscape:window-y="37"
     inkscape:window-maximized="1"
     inkscape:current-layer="layer1-4"
     showgrid="false"><sodipodi:guide
       position="43.106821,307.11104"
       orientation="0,-1"
       id="guide1"
       inkscape:locked="false" /></sodipodi:namedview><defs
     id="defs1" /><g
     inkscape:label="Calque 1"
     inkscape:groupmode="layer"
     id="layer1"
     transform="translate(2.3609889,-162.56504)"><g
       inkscape:label="Calque 1"
       id="layer1-4"
       transform="translate(-46.611295,-2.2680334)"><path
         style="fill:#feab1b;fill-opacity:1;stroke-width:17.5015;stroke-dasharray:none"
         d="m 56.811748,180.65096 2.883862,-0.32667 3.769446,-2.64676 c 2.073195,-1.45571 3.829049,-2.64675 3.901897,-2.64675 0.324198,0 2.998034,2.03824 2.896926,2.2083 -0.189823,0.31928 -0.451248,0.22143 -1.628295,-0.60947 -0.622845,-0.43968 -1.182066,-0.79941 -1.242711,-0.79941 -0.06065,0 -1.794096,1.16914 -3.852113,2.59809 l -3.741848,2.5981 -2.935514,-0.0244 -2.935513,-0.0244 z m 34.510222,-2.15013 c -1.956219,-1.37482 -3.665784,-2.54812 -3.799031,-2.60732 -0.133246,-0.0592 -0.808067,0.27557 -1.499603,0.74393 -0.879085,0.59537 -1.318141,0.78834 -1.459449,0.64146 -0.141306,-0.1469 0.243102,-0.5224 1.277799,-1.24819 l 1.479909,-1.03808 3.895457,2.69871 3.895452,2.69872 2.766968,0.29097 2.766978,0.29096 -2.883865,0.0142 -2.883856,0.0142 z m -19.32188,-1.47151 c 2.855024,-1.9784 5.257769,-3.59716 5.339434,-3.59722 0.08167,-8e-5 0.990079,0.58574 2.018703,1.30182 l 1.870224,1.30197 0.06025,-0.60248 c 0.04881,-0.4881 0.149185,-0.60249 0.528709,-0.60249 0.432146,0 0.468461,0.0752 0.468461,0.97074 v 0.97073 l 2.725844,1.87718 2.725843,1.87718 -0.790753,0.0608 c -0.736936,0.0567 -1.085802,-0.14396 -5.125935,-2.94785 -2.38435,-1.65476 -4.401476,-3.00858 -4.482502,-3.00849 -0.08103,9e-5 -2.093927,1.34902 -4.473114,2.99764 -3.973103,2.75307 -4.396332,2.99747 -5.190953,2.99749 -0.865133,3e-5 -0.865009,-7e-5 4.325794,-3.59706 z"
         id="path2"
         sodipodi:nodetypes="ccssssssccccssssscccccccsssscssscccsssssss"
         inkscape:export-filename="path2.png"
         inkscape:export-xdpi="96"
         inkscape:export-ydpi="96" /><text
         xml:space="preserve"
         style="font-size:3.52778px;fill:#000000;fill-opacity:0.996942;stroke-width:0.502466"
         x="48.556252"
         y="205.10571"
         id="text2"
         transform="scale(1.1073846,0.90302863)"><tspan
           sodipodi:role="line"
           id="tspan2"
           x="48.556252"
           y="205.10571"
           style="font-style:normal;font-variant:normal;font-weight:normal;font-stretch:normal;font-size:3.52778px;font-family:'Playwrite PL';-inkscape-font-specification:'Playwrite PL, Normal';font-variant-ligatures:normal;font-variant-caps:normal;font-variant-numeric:normal;font-variant-east-asian:normal;fill:#000000;fill-opacity:0.996942;stroke-width:0.502466">LAURENT PERIET</tspan></text></g></g></svg>
